<svg width="120" height="120" viewBox="0 0 120 120" fill="none" xmlns="http://www.w3.org/2000/svg">
  <rect width="120" height="120" rx="24" fill="#A0C334"/>
  <path d="M60 30C43.43 30 30 43.43 30 60C30 76.57 43.43 90 60 90C76.57 90 90 76.57 90 60C90 43.43 76.57 30 60 30ZM60 82C47.85 82 38 72.15 38 60C38 47.85 47.85 38 60 38C72.15 38 82 47.85 82 60C82 72.15 72.15 82 60 82Z" fill="white"/>
  <path d="M60 45C52.27 45 46 51.27 46 59C46 66.73 52.27 73 60 73C67.73 73 74 66.73 74 59C74 51.27 67.73 45 60 45ZM60 67C55.58 67 52 63.42 52 59C52 54.58 55.58 51 60 51C64.42 51 68 54.58 68 59C68 63.42 64.42 67 60 67Z" fill="white"/>
</svg>
