<svg width="120" height="120" viewBox="0 0 120 120" fill="none" xmlns="http://www.w3.org/2000/svg">
  <rect width="120" height="120" rx="24" fill="#0066CC"/>
  <path d="M35 45C35 41.6863 37.6863 39 41 39H79C82.3137 39 85 41.6863 85 45V75C85 78.3137 82.3137 81 79 81H41C37.6863 81 35 78.3137 35 75V45Z" fill="white"/>
  <path d="M45 50C45 48.8954 45.8954 48 47 48H53C54.1046 48 55 48.8954 55 50V70C55 71.1046 54.1046 72 53 72H47C45.8954 72 45 71.1046 45 70V50Z" fill="#0066CC"/>
  <path d="M65 50C65 48.8954 65.8954 48 67 48H73C74.1046 48 75 48.8954 75 50V70C75 71.1046 74.1046 72 73 72H67C65.8954 72 65 71.1046 65 70V50Z" fill="#0066CC"/>
  <circle cx="60" cy="60" r="8" fill="#0066CC"/>
</svg>
